<?xml version="1.0" encoding="UTF-8" standalone="no"?>
<!-- Created with Inkscape (http://www.inkscape.org/) -->

<svg
   xmlns:dc="http://purl.org/dc/elements/1.1/"
   xmlns:cc="http://creativecommons.org/ns#"
   xmlns:rdf="http://www.w3.org/1999/02/22-rdf-syntax-ns#"
   xmlns:svg="http://www.w3.org/2000/svg"
   xmlns="http://www.w3.org/2000/svg"
   xmlns:sodipodi="http://sodipodi.sourceforge.net/DTD/sodipodi-0.dtd"
   xmlns:inkscape="http://www.inkscape.org/namespaces/inkscape"
   version="1.1"
   id="svg7159"
   width="2048"
   height="1536"
   viewBox="0 0 2048 1536"
   sodipodi:docname="Logo1.svg"
   inkscape:version="0.92.3 (2405546, 2018-03-11)">
  <sodipodi:namedview
     pagecolor="#ffffff"
     bordercolor="#666666"
     borderopacity="1"
     objecttolerance="10"
     gridtolerance="10"
     guidetolerance="10"
     inkscape:pageopacity="0"
     inkscape:pageshadow="2"
     inkscape:window-width="1771"
     inkscape:window-height="920"
     id="namedview7161"
     showgrid="false"
     inkscape:zoom="1.7383041"
     inkscape:cx="984.00105"
     inkscape:cy="902.86346"
     inkscape:window-x="0"
     inkscape:window-y="0"
     inkscape:window-maximized="1"
     inkscape:current-layer="layer1" />
  <metadata
     id="metadata7165">
    <rdf:RDF>
      <cc:Work
         rdf:about="">
        <dc:format>image/svg+xml</dc:format>
        <dc:type
           rdf:resource="http://purl.org/dc/dcmitype/StillImage" />
        <dc:title />
      </cc:Work>
    </rdf:RDF>
  </metadata>
  <defs
     id="defs7163" />
  <g
     inkscape:groupmode="layer"
     id="layer1"
     inkscape:label="1vector">
    <path
       id="path824"
       transform="matrix(0.433594,0,0,0.433594,635.322,417.102)"
       style="stroke-width:8.05860149;stroke:#000000;stroke-linecap:round;fill:none"
       d="M773 44.4244C790.906 42.0737 810.07 44.1755 828 44.9607C875.288 47.0316 921.316 53.8739 967 66.5756C1088.61 100.388 1199.64 172.592 1273.57 276C1415.94 475.13 1408.45 763.857 1248.27 951C1209.69 996.075 1163.83 1037.8 1112 1067.28C1045.19 1105.29 972.739 1134.63 896 1144.72C713.135 1168.76 527.36 1123.86 390 995.911C239.111 855.354 186.473 630.482 244.721 435C272.258 342.582 326.54 256.823 398 192.17C473.551 123.815 569.138 76.4196 669 56.4491C703.676 49.5145 738.265 48.9847 773 44.4244M852 91L850 93M836 95L812.656 128L802.104 138.654L795.424 129L785 98M722 149C727.065 148.958 749.833 145.424 743.377 136.213C739.29 130.381 729.792 131.68 725.619 125.787C719.661 117.374 735.836 110.148 742 110M641 111C641.244 122.805 642.327 135.28 643.714 147C644.01 149.495 643.111 157.793 647.171 157.793C649.953 157.793 650.984 154.036 651.727 151.999C653.82 146.26 662.098 121.154 669.737 135.019C670.8 136.95 671.69 138.985 672.576 141C674.342 145.013 676.341 148.512 679 152M872.999 113.563C879.078 112.074 882.109 116.933 878.482 121.96C875.309 126.358 867.504 131.47 862.023 132.214C857.245 132.863 857.688 127.955 859.283 125C861.954 120.051 867.434 114.925 872.999 113.563M842 115L836 143M687 139C688.362 131.69 689.414 124.618 695.185 119.228C698.389 116.236 705.714 114.534 705.859 121.019C706.113 132.418 690.343 134.213 687.774 142.225C685.782 148.439 692.315 153.898 698 153.006C705.884 151.769 711.227 145.857 716 140M952 119C943.547 131.828 950.357 133.367 963 135M902 121C896.588 129.708 894.898 140.948 894 151M897 142L921 125.225L945 132M856 133C851.46 152.125 872.972 149.219 883 141M941 133C939.492 141.461 922.366 168.352 944.998 162.507C947.399 161.887 949.691 160.889 952 160M1026 136C1013.97 149.071 1003 164.772 998 182M635 162C632.547 165.308 630.121 168.838 626.911 171.468C625.15 172.909 623.139 174.085 621 174.866C598.836 182.959 606.072 126.338 625 143M966 156C967.09 148.939 974.335 143.78 981 141.943C984.399 141.006 991.068 140.977 990.994 146.051C990.792 159.84 967.48 152.283 963.003 159.188C959.309 164.883 963.524 170.976 969.001 172.891C975.883 175.298 984.38 173.284 990 169M554 144L554 145M582 191C586.874 189.338 606.705 179.386 596.851 172.988C591.058 169.228 582.857 173.113 577.318 168.911C568.31 162.076 583.466 149.184 590 148M646 159L646 162M558 167L567 196M1069 168L1058 179.044L1035 202M538 215C540.66 213.225 543.517 211.69 545.999 209.661C547.709 208.262 549.363 206.701 550.772 204.996C562.448 190.859 536.244 196.13 531.148 192.997C521.554 187.098 533.931 172.43 541 171M1067 173C1071.34 181.849 1061.9 192.209 1065.61 200.848C1067.42 205.071 1072.77 202.973 1076 201.974C1086.9 198.606 1096.65 194.343 1108 193M502 221C497.904 215.627 494.431 193.046 506.024 192.752C510.361 192.641 511.053 197.761 510.955 201C510.735 208.283 506.505 215.518 502 221M467 194C476.9 211.025 481.79 229.481 496 244M1106 194C1103.57 206.55 1089.51 218.863 1083 230M527 208C526.426 220.556 510.387 240.577 502 222M1121 243C1114.98 241.237 1109.1 243.91 1103 242.656C1095.98 241.211 1093.94 234.592 1099.22 229.681C1104.87 224.432 1129.81 215.826 1132.67 228.044C1134.93 237.747 1118.12 245.095 1117 256M430 228C438.546 239.12 444.078 261.685 457 268C459.536 259.417 455.343 250.752 456.094 242C456.432 238.063 458.228 233.611 463.005 234.711C470.858 236.521 474.672 245.389 483 247M1126 266C1131.31 256.821 1141.32 249.177 1151 245M1161 259L1139 276M447 279C446.695 282.497 445.994 285.857 444.326 288.996C443.209 291.1 441.745 292.945 439.906 294.467C420.192 310.777 408.458 252.903 430 264M458 269L458 273M1144 275C1153 278.661 1168.1 267.438 1175.67 275.318C1182.36 282.287 1166.37 292.606 1166.2 300C1166.11 303.934 1168.4 308.133 1172.02 309.847C1179.01 313.162 1202.29 314.576 1209 311L1195 292M407 335C414.672 327.306 419.166 319.977 420.231 309C420.705 304.124 419.337 297.617 412.999 298.449C402.668 299.806 393.266 316.567 382.019 312.393C366.937 306.794 384.716 279.606 394 277M1174 313L1190 333M569 474C571.22 475.2 575.577 482.308 569.99 481.369C568.324 481.089 567.342 479.522 567.105 477.976C565.987 470.689 564.939 466.783 560.99 460C554.852 449.456 553.915 437.139 549.505 426C544.984 414.581 536.882 408.945 530.603 399C528.31 395.368 529.047 390.836 527 387C533.764 381.821 541.672 379.004 547.961 372.91C556.457 364.676 561.423 354.475 573 349.927C590.598 343.013 611.945 349.112 630 350.83C650.304 352.763 671.6 351 692 351C725.66 351 760.905 347.495 794 354.662C816.125 359.453 835.033 372.715 857 378.37C880.809 384.5 906.685 384.043 930 391.347C951.902 398.209 971.63 410.58 991 422.576C1002.73 429.841 1015.6 435.251 1027 443.029C1039.23 451.372 1049.72 461.896 1061 471.41C1069.22 478.346 1077.65 485.334 1087 490.716C1097.57 496.805 1108.97 500.586 1117.25 510.039C1127.64 521.911 1130.28 533.112 1135.89 546.961C1144.71 568.721 1153.76 589.933 1156.71 614C1158.33 627.142 1157 640.835 1157 654C1157 669.279 1160.06 688.488 1154.53 703C1145.92 725.617 1121.12 733.648 1103 746.745C1092.94 754.014 1085.94 766.656 1074 770.896C1052.78 778.434 1030.64 770.008 1009 770C974.726 769.987 942.038 765.42 908 763.089C889.553 761.826 870.178 763.208 852 759.551C837.994 756.733 825.601 750.555 812 746.924C784.961 739.705 753.186 749.093 728 734.957C707.228 723.298 694.582 701.633 677 686.184C662.941 673.832 645.921 675.424 630 667.742C615.383 660.688 602.141 645.336 586 642.174C582.318 641.452 578.71 641.155 575 641.762C545.273 646.621 559.602 687.01 563.4 706C564.405 711.026 565.184 715.85 564.961 721C564.222 737.996 547.317 751.86 531 741.853C505.307 726.095 497.23 687.696 485.996 662C477.02 641.467 461.116 624.724 450.64 605C443.876 592.264 442.451 577.914 436.688 565C429.849 549.678 418.118 537.516 407.289 525C399.998 516.574 393.744 507.473 389.815 497C387.367 490.475 389.018 483.277 381 481M717 378C711.462 401.251 716.719 427.241 716.137 451C715.68 469.622 711.004 488.34 709.964 507C709.428 516.641 708.065 526.416 706.875 536C706.529 538.791 703.855 543.581 706.608 545.821C709.923 548.518 717.985 546.981 722 547.001C732.557 547.052 743.569 548.807 754 550.424C778.911 554.288 802.893 563.422 828 565.83C849.987 567.94 874.557 563.895 896 569C897.886 562.795 897.408 556.265 898.899 550C902.738 533.87 908.326 518.349 911.389 502C912.437 496.405 915.872 482.684 912.802 477.564C910.824 474.264 904.212 475.005 901 475C889.797 474.982 879.793 473.357 869 470.29C853.678 465.937 838.668 459.049 823 456.095C788.684 449.625 751.806 451 717 451M387 484C389.537 479.271 389.425 474.247 393.133 470.001C402.129 459.698 415.187 451.353 427 444.619C430.581 442.578 435.418 442.08 438.545 439.44C446.522 432.703 455.472 426.326 463 418.985C473.28 408.961 481.555 398.313 495 392.313C504.301 388.161 516.884 387.209 527 387M914 411C917.519 425.783 915 442.933 915 458C915 462.32 913.221 471.852 916.028 475.397C919.306 479.536 933.166 477.896 938 478.015C957.789 478.499 978.69 478.014 998 482M439 441C452.691 465.184 478.363 482.828 495.575 505C512.879 527.291 524.569 560.323 551 573.727C565.345 581.001 580.677 577.906 596 579.714C599.659 580.146 609.633 581.71 611.687 577.682C615.376 570.445 610.006 556.923 607.667 550C599.42 525.583 591.137 500.804 574 481M620 529C646.809 529 680.783 529.009 705 542M704 547C703.957 562.447 698.796 577.591 698.039 593C697.844 596.953 694.826 604.38 697.569 607.566C700.07 610.472 705.539 610.558 709 611.671C718.616 614.762 728.079 617.973 738 619.996C749.247 622.289 760.77 622.23 772 624.662C787.241 627.963 801.735 634.209 817 637.576C828.588 640.131 840.248 639.97 852 641C862.394 641.911 871.958 645.13 882 647.625C885.221 648.425 891.445 650.509 894.397 648.111C898.192 645.027 895.939 632.489 896.05 628C896.493 610.053 891.909 587.222 897 570M1136 549L1100 573.891L1080.89 584.108L1080.98 598L1085 638M898 571C907.788 571.773 929.285 573.168 936.477 580.564C939.495 583.668 938.018 591.019 937.999 595C937.931 609.08 930.678 621.291 916 624.042C909.991 625.168 903.155 623.641 897 624M612 579L640 586.889L694 603M939 583L1002 589.985L1044 589.83L1079 585M647 592L636 647M696 607L689.547 627L672 658M1062 691C1053.56 693.495 1042.6 692.368 1034 690.919C1022.34 688.953 998.022 683.622 992.103 671.957C988.656 665.164 995.343 652.558 999.005 647C1011.78 627.608 1039.66 608.754 1052.66 639C1059.71 655.383 1057.11 674.468 1062 691M895 649C907.159 657.999 928.503 654.435 943 656.286C959.425 658.382 973.812 666.861 990 670M335 677C324.75 691.725 313.533 705.558 304.204 721C301.669 725.196 294.972 733.693 298.782 738.682C301.733 742.547 312.436 742.166 317 742.92C335.352 745.953 354.96 744.705 373 749M1233 686C1236.21 707.716 1250.93 729.21 1258.14 750C1259.75 754.638 1266.42 768.208 1262.38 772.397C1259.85 775.022 1255.1 773.56 1252 773.13C1242.98 771.877 1233.99 771.197 1225 769.576C1217.18 768.165 1209.42 766.859 1202 764M1062 692L1084 698.439L1108 718M1292 704L1291 708M339 790C347.177 782.916 362.616 783.095 371.961 788.529C376.501 791.17 383.289 798.185 379.357 803.852C372.707 813.438 352.259 801.243 346 796.473C343.077 794.246 340.125 790.509 336.015 791.412C327.309 793.325 328.427 805.76 330.688 812C335.154 824.326 348.942 832.209 361 835M1229 828L1228 831M1174 878C1166.03 868.055 1165.82 852.908 1168.65 841C1169.79 836.25 1173.96 826.528 1180.61 830.951C1189.57 836.916 1182.77 862.157 1179.61 870C1177.6 874.989 1173.65 878.489 1176.93 883.981C1182.54 893.37 1193.19 888.491 1198.79 881.995C1207.39 872.023 1210.35 856.665 1208 844M370 866C380.789 855.18 387.013 843.795 401 836M377 859C391.74 866.857 421.648 846.264 429 871M503 895C492.16 903.23 482.283 912.686 471.514 920.919C467.675 923.854 465.557 928.723 461 930.851C455.896 933.235 445.683 932.955 440 932.995C429.957 933.066 412.062 928.19 413.315 915C414.972 897.547 446.132 894.617 458 901.367C466.115 905.983 467.004 912.636 471 920M459 933C456.29 944.405 444.947 956.65 460.998 963.471C463.299 964.448 465.539 964.784 468 965M1058 956C1060.7 960.747 1062.65 965.892 1064.57 971C1065.69 973.965 1066.69 976.983 1067.66 980C1069.19 984.766 1075.69 996.014 1078.69 984.985C1082.28 971.759 1074.52 943.359 1088.04 934.859C1099.63 927.576 1108.04 946.049 1115.09 951.681C1120.97 956.379 1127.64 951.934 1130 946M570 943C560.637 953.718 551.081 964.202 541.559 974.495C538.126 978.205 537.426 983.419 532.96 986.513C528.28 989.756 518.634 990.369 513 991.844C502.769 994.522 483.11 993.09 482.406 979C481.48 960.479 514.732 952.357 528 958.417C535.539 961.861 536.597 967.956 541 974M1031 974C1031.29 987.883 1035.01 1005.98 1042 1018M666 986C652.132 1006.96 636.168 1038.44 635 1064M531 989C529.276 1002.35 521.307 1018.56 542 1019M969 1034C965.089 1022.76 971.068 1007.42 977.244 998.001C980.093 993.658 985.957 987.723 991.891 989.694C997.825 991.664 995.439 999.828 993.907 1004C989.408 1016.25 979.701 1027.1 969 1034M570 1016C572.898 1004.78 585.935 997.523 597 996.184C603.53 995.395 612.958 997.367 611.752 1006C610.085 1017.93 587.177 1019.23 578 1018.98C574.31 1018.87 569.515 1015.99 566.589 1019.29C560.41 1026.24 566.764 1038.15 573.015 1042.3C584.636 1050.01 598.839 1048.66 611 1043M818 1013C803.922 1030.75 792.604 1050.74 779.154 1069C775.734 1073.64 769.71 1086.13 763.042 1086.13C757.176 1086.13 755.055 1075.18 753.399 1071C746.628 1053.92 740.962 1036.65 736 1019M909 1072C909.756 1064.97 912.157 1061.47 914.521 1055C919.607 1041.09 926.655 1011.89 946 1014M1015 1019C1011.65 1030.64 1002.84 1042.48 992 1048.08C978.537 1055.04 969.119 1048.33 969 1034M661 1076C671.127 1080.79 682.836 1082.64 694 1080.53C698.954 1079.6 705.651 1076.35 703.381 1070.09C699.287 1058.8 681.354 1056.86 677.654 1045C672.591 1028.77 702.358 1024.09 712 1030M903 1029C901.038 1039.06 902.217 1056.17 909 1064M830 1068C833.142 1055.25 837.041 1043.89 848 1035.53C852.437 1032.15 865.084 1027.17 865.333 1037C865.638 1049.1 851.172 1059.3 842 1064.88C838.693 1066.89 832.309 1067.42 830.603 1071.23C825.714 1082.15 837.26 1090.76 847 1089.83C861.307 1088.47 870.796 1078.99 880 1069" />
  </g>
</svg>
